<svg width="36" height="36" viewBox="0 0 36 36" fill="none" xmlns="http://www.w3.org/2000/svg">
<rect width="36" height="36" fill="#FEFCE8"/>
<path d="M20.5 16L22 24M13 16H23M14 24L15.5 16M11 26C11 25.4696 11.2107 24.9609 11.5858 24.5858C11.9609 24.2107 12.4696 24 13 24H23C23.5304 24 24.0391 24.2107 24.4142 24.5858C24.7893 24.9609 25 25.4696 25 26V27C25 27.2652 24.8946 27.5196 24.7071 27.7071C24.5196 27.8946 24.2652 28 24 28H12C11.7348 28 11.4804 27.8946 11.2929 27.7071C11.1054 27.5196 11 27.2652 11 27V26ZM22 12C22 14.2091 20.2091 16 18 16C15.7909 16 14 14.2091 14 12C14 9.79086 15.7909 8 18 8C20.2091 8 22 9.79086 22 12Z" stroke="black" stroke-width="2" stroke-linecap="round" stroke-linejoin="round"/>
</svg>